<?xml version="1.0" encoding="UTF-8" standalone="no"?>
<!DOCTYPE svg PUBLIC "-//W3C//DTD SVG 1.1//EN"
 "http://www.w3.org/Graphics/SVG/1.1/DTD/svg11.dtd">
<!-- Generated by graphviz version 2.38.0 (20140413.2041)
 -->
<!-- Title: G Pages: 1 -->
<svg width="431pt" height="288pt"
 viewBox="0.00 0.00 431.20 288.00" xmlns="http://www.w3.org/2000/svg" xmlns:xlink="http://www.w3.org/1999/xlink">
<g id="graph0" class="graph" transform="scale(0.22606 0.22606) rotate(0) translate(4 1270)">
<title>G</title>
<polygon fill="white" stroke="none" points="-4,4 -4,-1270 1903.45,-1270 1903.45,4 -4,4"/>
<g id="clust1" class="cluster"><title>cluster_0</title>
<polygon fill="#ccffcc" stroke="#ccffcc" points="78.4469,-502.51 78.4469,-1077.96 1091.45,-1077.96 1091.45,-502.51 78.4469,-502.51"/>
<text text-anchor="middle" x="584.947" y="-1062.76" font-family="Times,serif" font-size="14.00">Handler</text>
</g>
<g id="clust2" class="cluster"><title>cluster_1</title>
<polygon fill="#99ff99" stroke="#99ff99" points="981.447,-771.595 981.447,-893.17 1083.45,-893.17 1083.45,-771.595 981.447,-771.595"/>
<text text-anchor="middle" x="1032.45" y="-877.97" font-family="Times,serif" font-size="14.00">Form</text>
</g>
<g id="clust3" class="cluster"><title>cluster_2</title>
<polygon fill="#99ff99" stroke="#99ff99" points="570.447,-906.138 570.447,-1027.71 914.447,-1027.71 914.447,-906.138 570.447,-906.138"/>
<text text-anchor="middle" x="742.447" y="-1012.51" font-family="Times,serif" font-size="14.00">Import</text>
</g>
<g id="clust4" class="cluster"><title>cluster_3</title>
<polygon fill="#99ff99" stroke="#99ff99" points="262.447,-515.478 262.447,-758.627 983.447,-758.627 983.447,-515.478 262.447,-515.478"/>
<text text-anchor="middle" x="622.947" y="-743.427" font-family="Times,serif" font-size="14.00">Resync</text>
</g>
<g id="clust5" class="cluster"><title>cluster_4</title>
<polygon fill="#ccffcc" stroke="#ccffcc" points="1099.45,-282.054 1099.45,-893.17 1891.45,-893.17 1891.45,-282.054 1099.45,-282.054"/>
<text text-anchor="middle" x="1495.45" y="-877.97" font-family="Times,serif" font-size="14.00">IPS</text>
</g>
<g id="clust6" class="cluster"><title>cluster_5</title>
<polygon fill="#99ff99" stroke="#99ff99" points="1609.45,-515.478 1609.45,-637.052 1883.45,-637.052 1883.45,-515.478 1609.45,-515.478"/>
<text text-anchor="middle" x="1746.45" y="-621.852" font-family="Times,serif" font-size="14.00">Import</text>
</g>
<g id="clust7" class="cluster"><title>cluster_6</title>
<polygon fill="#99ff99" stroke="#99ff99" points="1316.45,-515.478 1316.45,-637.052 1601.45,-637.052 1601.45,-515.478 1316.45,-515.478"/>
<text text-anchor="middle" x="1458.95" y="-621.852" font-family="Times,serif" font-size="14.00">Widget</text>
</g>
<g id="clust8" class="cluster"><title>cluster_7</title>
<polygon fill="#ccffcc" stroke="#ccffcc" points="1023.45,-147.511 1023.45,-269.086 1163.45,-269.086 1163.45,-147.511 1023.45,-147.511"/>
<text text-anchor="middle" x="1093.45" y="-253.886" font-family="Times,serif" font-size="14.00">Import</text>
</g>
<g id="clust9" class="cluster"><title>cluster_8</title>
<polygon fill="#ccffcc" stroke="#ccffcc" points="923.447,-12.968 923.447,-134.543 1139.45,-134.543 1139.45,-12.968 923.447,-12.968"/>
<text text-anchor="middle" x="1031.45" y="-119.343" font-family="Times,serif" font-size="14.00">Settings</text>
</g>
<!-- u46 -->
<g id="node1" class="node"><title>u46</title>
<ellipse fill="none" stroke="black" cx="616.447" cy="-1236.97" rx="29.795" ry="18"/>
<text text-anchor="middle" x="616.447" y="-1233.27" font-family="Times,serif" font-size="14.00">Main</text>
</g>
<!-- u0 -->
<g id="node6" class="node"><title>u0</title>
<ellipse fill="none" stroke="black" cx="616.447" cy="-1119.97" rx="51.9908" ry="18"/>
<text text-anchor="middle" x="616.447" y="-1116.27" font-family="Times,serif" font-size="14.00">Application</text>
</g>
<!-- u46&#45;&gt;u0 -->
<g id="edge89" class="edge"><title>u46&#45;&gt;u0</title>
<path fill="none" stroke="black" d="M616.447,-1218.94C616.447,-1218.94 616.447,-1148.21 616.447,-1148.21"/>
<polygon fill="black" stroke="black" points="619.947,-1148.21 616.447,-1138.21 612.947,-1148.21 619.947,-1148.21"/>
</g>
<!-- u6 -->
<g id="node2" class="node"><title>u6</title>
<ellipse fill="none" stroke="black" cx="974.447" cy="-189.968" rx="38.9931" ry="18"/>
<text text-anchor="middle" x="974.447" y="-186.268" font-family="Times,serif" font-size="14.00">Settings</text>
</g>
<!-- u7 -->
<g id="node47" class="node"><title>u7</title>
<ellipse fill="none" stroke="black" cx="974.447" cy="-54.968" rx="42.7926" ry="18"/>
<text text-anchor="middle" x="974.447" y="-51.268" font-family="Times,serif" font-size="14.00">Database</text>
</g>
<!-- u6&#45;&gt;u7 -->
<g id="edge17" class="edge"><title>u6&#45;&gt;u7</title>
<path fill="none" stroke="black" d="M974.447,-171.761C974.447,-171.761 974.447,-83.3174 974.447,-83.3174"/>
<polygon fill="black" stroke="black" points="977.947,-83.3174 974.447,-73.3174 970.947,-83.3174 977.947,-83.3174"/>
</g>
<!-- u4 -->
<g id="node3" class="node"><title>u4</title>
<ellipse fill="none" stroke="black" cx="34.4469" cy="-947.968" rx="34.394" ry="18"/>
<text text-anchor="middle" x="34.4469" y="-944.268" font-family="Times,serif" font-size="14.00">Model</text>
</g>
<!-- u5 -->
<g id="node38" class="node"><title>u5</title>
<ellipse fill="none" stroke="black" cx="1143.45" cy="-813.968" rx="35.9954" ry="18"/>
<text text-anchor="middle" x="1143.45" y="-810.268" font-family="Times,serif" font-size="14.00">Enums</text>
</g>
<!-- u4&#45;&gt;u5 -->
<g id="edge16" class="edge"><title>u4&#45;&gt;u5</title>
<path fill="none" stroke="black" d="M45.9293,-930.78C45.9293,-905.425 45.9293,-860.968 45.9293,-860.968 45.9293,-860.968 1143.45,-860.968 1143.45,-860.968 1143.45,-860.968 1143.45,-842.005 1143.45,-842.005"/>
<polygon fill="black" stroke="black" points="1146.95,-842.005 1143.45,-832.005 1139.95,-842.005 1146.95,-842.005"/>
</g>
<!-- u2 -->
<g id="node4" class="node"><title>u2</title>
<ellipse fill="none" stroke="black" cx="1040.45" cy="-323.968" rx="50.8918" ry="18"/>
<text text-anchor="middle" x="1040.45" y="-320.268" font-family="Times,serif" font-size="14.00">Foundation</text>
</g>
<!-- u3 -->
<g id="node45" class="node"><title>u3</title>
<ellipse fill="none" stroke="black" cx="1093.45" cy="-189.968" rx="61.99" ry="18"/>
<text text-anchor="middle" x="1093.45" y="-186.268" font-family="Times,serif" font-size="14.00">NoFoundation</text>
</g>
<!-- u2&#45;&gt;u3 -->
<g id="edge13" class="edge"><title>u2&#45;&gt;u3</title>
<path fill="none" stroke="black" d="M1071.33,-309.628C1071.33,-309.628 1071.33,-217.144 1071.33,-217.144"/>
<polygon fill="black" stroke="black" points="1074.83,-217.143 1071.33,-207.144 1067.83,-217.144 1074.83,-217.143"/>
</g>
<!-- u1 -->
<g id="node5" class="node"><title>u1</title>
<ellipse fill="none" stroke="black" cx="1056.45" cy="-440.968" rx="35.194" ry="18"/>
<text text-anchor="middle" x="1056.45" y="-437.268" font-family="Times,serif" font-size="14.00">Import</text>
</g>
<!-- u1&#45;&gt;u2 -->
<g id="edge12" class="edge"><title>u1&#45;&gt;u2</title>
<path fill="none" stroke="black" d="M1056.25,-422.943C1056.25,-422.943 1056.25,-351.44 1056.25,-351.44"/>
<polygon fill="black" stroke="black" points="1059.75,-351.44 1056.25,-341.44 1052.75,-351.44 1059.75,-351.44"/>
</g>
<!-- u44 -->
<g id="node7" class="node"><title>u44</title>
<ellipse fill="none" stroke="black" cx="526.447" cy="-947.968" rx="34.394" ry="18"/>
<text text-anchor="middle" x="526.447" y="-944.268" font-family="Times,serif" font-size="14.00">Search</text>
</g>
<!-- u0&#45;&gt;u44 -->
<g id="edge10" class="edge"><title>u0&#45;&gt;u44</title>
<path fill="none" stroke="black" d="M566.916,-1114.44C566.916,-1085.64 566.916,-953.968 566.916,-953.968 566.916,-953.968 566.135,-953.968 566.135,-953.968"/>
<polygon fill="black" stroke="black" points="569.113,-950.468 559.113,-953.968 569.113,-957.468 569.113,-950.468"/>
</g>
<!-- u43 -->
<g id="node8" class="node"><title>u43</title>
<ellipse fill="none" stroke="black" cx="1045.45" cy="-947.968" rx="38.1938" ry="18"/>
<text text-anchor="middle" x="1045.45" y="-944.268" font-family="Times,serif" font-size="14.00">Rubrics</text>
</g>
<!-- u0&#45;&gt;u43 -->
<g id="edge9" class="edge"><title>u0&#45;&gt;u43</title>
<path fill="none" stroke="black" d="M667.768,-1122.97C781.639,-1122.97 1045.45,-1122.97 1045.45,-1122.97 1045.45,-1122.97 1045.45,-976.037 1045.45,-976.037"/>
<polygon fill="black" stroke="black" points="1048.95,-976.037 1045.45,-966.037 1041.95,-976.037 1048.95,-976.037"/>
</g>
<!-- u42 -->
<g id="node9" class="node"><title>u42</title>
<ellipse fill="none" stroke="black" cx="956.447" cy="-947.968" rx="32.4942" ry="18"/>
<text text-anchor="middle" x="956.447" y="-944.268" font-family="Times,serif" font-size="14.00">Query</text>
</g>
<!-- u0&#45;&gt;u42 -->
<g id="edge8" class="edge"><title>u0&#45;&gt;u42</title>
<path fill="none" stroke="black" d="M667.348,-1115.97C762.197,-1115.97 956.447,-1115.97 956.447,-1115.97 956.447,-1115.97 956.447,-976.267 956.447,-976.267"/>
<polygon fill="black" stroke="black" points="959.947,-976.267 956.447,-966.267 952.947,-976.267 959.947,-976.267"/>
</g>
<!-- u41 -->
<g id="node10" class="node"><title>u41</title>
<ellipse fill="none" stroke="black" cx="435.447" cy="-947.968" rx="38.1938" ry="18"/>
<text text-anchor="middle" x="435.447" y="-944.268" font-family="Times,serif" font-size="14.00">Options</text>
</g>
<!-- u0&#45;&gt;u41 -->
<g id="edge7" class="edge"><title>u0&#45;&gt;u41</title>
<path fill="none" stroke="black" d="M574.922,-1108.97C521.484,-1108.97 435.447,-1108.97 435.447,-1108.97 435.447,-1108.97 435.447,-976.124 435.447,-976.124"/>
<polygon fill="black" stroke="black" points="438.947,-976.124 435.447,-966.124 431.947,-976.124 438.947,-976.124"/>
</g>
<!-- u33 -->
<g id="node11" class="node"><title>u33</title>
<ellipse fill="none" stroke="black" cx="344.447" cy="-947.968" rx="34.394" ry="18"/>
<text text-anchor="middle" x="344.447" y="-944.268" font-family="Times,serif" font-size="14.00">Export</text>
</g>
<!-- u0&#45;&gt;u33 -->
<g id="edge3" class="edge"><title>u0&#45;&gt;u33</title>
<path fill="none" stroke="black" d="M565.605,-1115.97C486.878,-1115.97 344.447,-1115.97 344.447,-1115.97 344.447,-1115.97 344.447,-976.267 344.447,-976.267"/>
<polygon fill="black" stroke="black" points="347.947,-976.267 344.447,-966.267 340.947,-976.267 347.947,-976.267"/>
</g>
<!-- u32 -->
<g id="node12" class="node"><title>u32</title>
<ellipse fill="none" stroke="black" cx="225.447" cy="-947.968" rx="66.8882" ry="18"/>
<text text-anchor="middle" x="225.447" y="-944.268" font-family="Times,serif" font-size="14.00">DocumentView</text>
</g>
<!-- u0&#45;&gt;u32 -->
<g id="edge2" class="edge"><title>u0&#45;&gt;u32</title>
<path fill="none" stroke="black" d="M564.928,-1122.97C458.755,-1122.97 225.447,-1122.97 225.447,-1122.97 225.447,-1122.97 225.447,-976.037 225.447,-976.037"/>
<polygon fill="black" stroke="black" points="228.947,-976.037 225.447,-966.037 221.947,-976.037 228.947,-976.037"/>
</g>
<!-- u9 -->
<g id="node16" class="node"><title>u9</title>
<ellipse fill="none" stroke="black" cx="113.447" cy="-947.968" rx="27" ry="18"/>
<text text-anchor="middle" x="113.447" y="-944.268" font-family="Times,serif" font-size="14.00">Api</text>
</g>
<!-- u0&#45;&gt;u9 -->
<g id="edge1" class="edge"><title>u0&#45;&gt;u9</title>
<path fill="none" stroke="black" d="M573.126,-1129.97C451.117,-1129.97 113.447,-1129.97 113.447,-1129.97 113.447,-1129.97 113.447,-976.084 113.447,-976.084"/>
<polygon fill="black" stroke="black" points="116.947,-976.084 113.447,-966.084 109.947,-976.084 116.947,-976.084"/>
</g>
<!-- u37 -->
<g id="node18" class="node"><title>u37</title>
<ellipse fill="none" stroke="black" cx="705.447" cy="-947.968" rx="33.2948" ry="18"/>
<text text-anchor="middle" x="705.447" y="-944.268" font-family="Times,serif" font-size="14.00">Single</text>
</g>
<!-- u0&#45;&gt;u37 -->
<g id="edge6" class="edge"><title>u0&#45;&gt;u37</title>
<path fill="none" stroke="black" d="M666.045,-1114.44C666.045,-1085.64 666.045,-953.968 666.045,-953.968 666.045,-953.968 666.843,-953.968 666.843,-953.968"/>
<polygon fill="black" stroke="black" points="664.019,-957.468 674.019,-953.968 664.019,-950.468 664.019,-957.468"/>
</g>
<!-- u36 -->
<g id="node19" class="node"><title>u36</title>
<ellipse fill="none" stroke="black" cx="616.447" cy="-947.968" rx="37.8943" ry="18"/>
<text text-anchor="middle" x="616.447" y="-944.268" font-family="Times,serif" font-size="14.00">Control</text>
</g>
<!-- u0&#45;&gt;u36 -->
<g id="edge5" class="edge"><title>u0&#45;&gt;u36</title>
<path fill="none" stroke="black" d="M616.447,-1101.89C616.447,-1101.89 616.447,-976.066 616.447,-976.066"/>
<polygon fill="black" stroke="black" points="619.947,-976.066 616.447,-966.066 612.947,-976.066 619.947,-976.066"/>
</g>
<!-- u34 -->
<g id="node20" class="node"><title>u34</title>
<ellipse fill="none" stroke="black" cx="867.447" cy="-947.968" rx="38.9931" ry="18"/>
<text text-anchor="middle" x="867.447" y="-944.268" font-family="Times,serif" font-size="14.00">Archive</text>
</g>
<!-- u0&#45;&gt;u34 -->
<g id="edge4" class="edge"><title>u0&#45;&gt;u34</title>
<path fill="none" stroke="black" d="M657.613,-1108.97C728.821,-1108.97 867.447,-1108.97 867.447,-1108.97 867.447,-1108.97 867.447,-976.124 867.447,-976.124"/>
<polygon fill="black" stroke="black" points="870.947,-976.124 867.447,-966.124 863.947,-976.124 870.947,-976.124"/>
</g>
<!-- u45 -->
<g id="node39" class="node"><title>u45</title>
<ellipse fill="none" stroke="black" cx="1834.45" cy="-557.968" rx="40.8928" ry="18"/>
<text text-anchor="middle" x="1834.45" y="-554.268" font-family="Times,serif" font-size="14.00">Watcher</text>
</g>
<!-- u0&#45;&gt;u45 -->
<g id="edge11" class="edge"><title>u0&#45;&gt;u45</title>
<path fill="none" stroke="black" d="M659.92,-1129.97C878.62,-1129.97 1848.1,-1129.97 1848.1,-1129.97 1848.1,-1129.97 1848.1,-585.087 1848.1,-585.087"/>
<polygon fill="black" stroke="black" points="1851.6,-585.087 1848.1,-575.087 1844.6,-585.087 1851.6,-585.087"/>
</g>
<!-- u31 -->
<g id="node13" class="node"><title>u31</title>
<ellipse fill="none" stroke="black" cx="705.447" cy="-813.968" rx="44.393" ry="18"/>
<text text-anchor="middle" x="705.447" y="-810.268" font-family="Times,serif" font-size="14.00">Common</text>
</g>
<!-- u44&#45;&gt;u31 -->
<g id="edge85" class="edge"><title>u44&#45;&gt;u31</title>
<path fill="none" stroke="black" d="M523.788,-929.817C523.788,-899.289 523.788,-840.968 523.788,-840.968 523.788,-840.968 663.648,-840.968 663.648,-840.968 663.648,-840.968 663.648,-829.96 663.648,-829.96"/>
<polygon fill="black" stroke="black" points="667.148,-829.96 663.648,-819.96 660.148,-829.96 667.148,-829.96"/>
</g>
<!-- u20 -->
<g id="node15" class="node"><title>u20</title>
<ellipse fill="none" stroke="black" cx="535.447" cy="-813.968" rx="36.2938" ry="18"/>
<text text-anchor="middle" x="535.447" y="-810.268" font-family="Times,serif" font-size="14.00">Resync</text>
</g>
<!-- u44&#45;&gt;u20 -->
<g id="edge84" class="edge"><title>u44&#45;&gt;u20</title>
<path fill="none" stroke="black" d="M511.419,-931.537C511.419,-931.537 511.419,-837.694 511.419,-837.694"/>
<polygon fill="black" stroke="black" points="514.919,-837.694 511.419,-827.694 507.919,-837.694 514.919,-837.694"/>
</g>
<!-- u39 -->
<g id="node42" class="node"><title>u39</title>
<ellipse fill="none" stroke="black" cx="1559.45" cy="-557.968" rx="33.5952" ry="18"/>
<text text-anchor="middle" x="1559.45" y="-554.268" font-family="Times,serif" font-size="14.00">Origin</text>
</g>
<!-- u44&#45;&gt;u39 -->
<g id="edge87" class="edge"><title>u44&#45;&gt;u39</title>
<path fill="none" stroke="black" d="M548.525,-934.084C548.525,-919.908 548.525,-899.968 548.525,-899.968 548.525,-899.968 1548.18,-899.968 1548.18,-899.968 1548.18,-899.968 1548.18,-585.398 1548.18,-585.398"/>
<polygon fill="black" stroke="black" points="1551.68,-585.398 1548.18,-575.398 1544.68,-585.398 1551.68,-585.398"/>
</g>
<!-- u38 -->
<g id="node43" class="node"><title>u38</title>
<ellipse fill="none" stroke="black" cx="1473.45" cy="-557.968" rx="34.394" ry="18"/>
<text text-anchor="middle" x="1473.45" y="-554.268" font-family="Times,serif" font-size="14.00">Rubric</text>
</g>
<!-- u44&#45;&gt;u38 -->
<g id="edge86" class="edge"><title>u44&#45;&gt;u38</title>
<path fill="none" stroke="black" d="M536.156,-930.365C536.156,-910.514 536.156,-880.968 536.156,-880.968 536.156,-880.968 1456.22,-880.968 1456.22,-880.968 1456.22,-880.968 1456.22,-583.986 1456.22,-583.986"/>
<polygon fill="black" stroke="black" points="1459.72,-583.986 1456.22,-573.986 1452.72,-583.986 1459.72,-583.986"/>
</g>
<!-- u43&#45;&gt;u38 -->
<g id="edge83" class="edge"><title>u43&#45;&gt;u38</title>
<path fill="none" stroke="black" d="M1084.18,-947.968C1192.5,-947.968 1490.67,-947.968 1490.67,-947.968 1490.67,-947.968 1490.67,-583.739 1490.67,-583.739"/>
<polygon fill="black" stroke="black" points="1494.17,-583.739 1490.67,-573.739 1487.17,-583.74 1494.17,-583.739"/>
</g>
<!-- u10 -->
<g id="node37" class="node"><title>u10</title>
<ellipse fill="none" stroke="black" cx="1238.45" cy="-557.968" rx="48.1917" ry="18"/>
<text text-anchor="middle" x="1238.45" y="-554.268" font-family="Times,serif" font-size="14.00">Document</text>
</g>
<!-- u42&#45;&gt;u10 -->
<g id="edge82" class="edge"><title>u42&#45;&gt;u10</title>
<path fill="none" stroke="black" d="M984.544,-938.852C984.544,-887.04 984.544,-631.968 984.544,-631.968 984.544,-631.968 1240.38,-631.968 1240.38,-631.968 1240.38,-631.968 1240.38,-586.26 1240.38,-586.26"/>
<polygon fill="black" stroke="black" points="1243.88,-586.26 1240.38,-576.26 1236.88,-586.26 1243.88,-586.26"/>
</g>
<!-- u41&#45;&gt;u20 -->
<g id="edge81" class="edge"><title>u41&#45;&gt;u20</title>
<path fill="none" stroke="black" d="M424.698,-930.632C424.698,-897.174 424.698,-826.968 424.698,-826.968 424.698,-826.968 500.039,-826.968 500.039,-826.968"/>
<polygon fill="black" stroke="black" points="500.039,-830.468 510.039,-826.968 500.039,-823.468 500.039,-830.468"/>
</g>
<!-- u33&#45;&gt;u20 -->
<g id="edge67" class="edge"><title>u33&#45;&gt;u20</title>
<path fill="none" stroke="black" d="M361.67,-932.137C361.67,-898.501 361.67,-822.968 361.67,-822.968 361.67,-822.968 493.574,-822.968 493.574,-822.968"/>
<polygon fill="black" stroke="black" points="493.574,-826.468 503.574,-822.968 493.574,-819.468 493.574,-826.468"/>
</g>
<!-- u32&#45;&gt;u20 -->
<g id="edge66" class="edge"><title>u32&#45;&gt;u20</title>
<path fill="none" stroke="black" d="M281.471,-937.767C281.471,-907.121 281.471,-817.968 281.471,-817.968 281.471,-817.968 489.865,-817.968 489.865,-817.968"/>
<polygon fill="black" stroke="black" points="489.865,-821.468 499.865,-817.968 489.865,-814.468 489.865,-821.468"/>
</g>
<!-- u31&#45;&gt;u1 -->
<g id="edge65" class="edge"><title>u31&#45;&gt;u1</title>
<path fill="none" stroke="black" d="M749.887,-813.968C827.632,-813.968 980.144,-813.968 980.144,-813.968 980.144,-813.968 980.144,-446.968 980.144,-446.968 980.144,-446.968 1013.2,-446.968 1013.2,-446.968"/>
<polygon fill="black" stroke="black" points="1013.2,-450.468 1023.2,-446.968 1013.2,-443.468 1013.2,-450.468"/>
</g>
<!-- u22 -->
<g id="node14" class="node"><title>u22</title>
<ellipse fill="none" stroke="black" cx="220.447" cy="-678.968" rx="31.6951" ry="18"/>
<text text-anchor="middle" x="220.447" y="-675.268" font-family="Times,serif" font-size="14.00">Menu</text>
</g>
<!-- u22&#45;&gt;u1 -->
<g id="edge48" class="edge"><title>u22&#45;&gt;u1</title>
<path fill="none" stroke="black" d="M209.831,-661.81C209.831,-606.271 209.831,-434.968 209.831,-434.968 209.831,-434.968 1013.26,-434.968 1013.26,-434.968"/>
<polygon fill="black" stroke="black" points="1013.26,-438.468 1023.26,-434.968 1013.26,-431.468 1013.26,-438.468"/>
</g>
<!-- u12 -->
<g id="node35" class="node"><title>u12</title>
<ellipse fill="none" stroke="black" cx="1147.45" cy="-323.968" rx="38.1938" ry="18"/>
<text text-anchor="middle" x="1147.45" y="-320.268" font-family="Times,serif" font-size="14.00">Options</text>
</g>
<!-- u22&#45;&gt;u12 -->
<g id="edge49" class="edge"><title>u22&#45;&gt;u12</title>
<path fill="none" stroke="black" d="M231.063,-661.976C231.063,-621.545 231.063,-522.968 231.063,-522.968 231.063,-522.968 1120.77,-522.968 1120.77,-522.968 1120.77,-522.968 1120.77,-347.025 1120.77,-347.025"/>
<polygon fill="black" stroke="black" points="1124.27,-347.025 1120.77,-337.025 1117.27,-347.025 1124.27,-347.025"/>
</g>
<!-- u20&#45;&gt;u22 -->
<g id="edge39" class="edge"><title>u20&#45;&gt;u22</title>
<path fill="none" stroke="black" d="M500.229,-808.968C418.031,-808.968 220.447,-808.968 220.447,-808.968 220.447,-808.968 220.447,-707.044 220.447,-707.044"/>
<polygon fill="black" stroke="black" points="223.947,-707.044 220.447,-697.044 216.947,-707.044 223.947,-707.044"/>
</g>
<!-- u30 -->
<g id="node22" class="node"><title>u30</title>
<ellipse fill="none" stroke="black" cx="645.447" cy="-678.968" rx="55.7903" ry="18"/>
<text text-anchor="middle" x="645.447" y="-675.268" font-family="Times,serif" font-size="14.00">RubricMove</text>
</g>
<!-- u20&#45;&gt;u30 -->
<g id="edge46" class="edge"><title>u20&#45;&gt;u30</title>
<path fill="none" stroke="black" d="M570.092,-807.968C594.129,-807.968 621.848,-807.968 621.848,-807.968 621.848,-807.968 621.848,-705.306 621.848,-705.306"/>
<polygon fill="black" stroke="black" points="625.348,-705.306 621.848,-695.306 618.348,-705.306 625.348,-705.306"/>
</g>
<!-- u29 -->
<g id="node23" class="node"><title>u29</title>
<ellipse fill="none" stroke="black" cx="535.447" cy="-678.968" rx="36.2938" ry="18"/>
<text text-anchor="middle" x="535.447" y="-675.268" font-family="Times,serif" font-size="14.00">Resync</text>
</g>
<!-- u20&#45;&gt;u29 -->
<g id="edge45" class="edge"><title>u20&#45;&gt;u29</title>
<path fill="none" stroke="black" d="M509.449,-801.024C509.449,-801.024 509.449,-701.676 509.449,-701.676"/>
<polygon fill="black" stroke="black" points="512.949,-701.676 509.449,-691.676 505.949,-701.676 512.949,-701.676"/>
</g>
<!-- u28 -->
<g id="node24" class="node"><title>u28</title>
<ellipse fill="none" stroke="black" cx="935.447" cy="-678.968" rx="40.0939" ry="18"/>
<text text-anchor="middle" x="935.447" y="-675.268" font-family="Times,serif" font-size="14.00">Reindex</text>
</g>
<!-- u20&#45;&gt;u28 -->
<g id="edge44" class="edge"><title>u20&#45;&gt;u28</title>
<path fill="none" stroke="black" d="M551.046,-797.403C551.046,-775.865 551.046,-740.968 551.046,-740.968 551.046,-740.968 902.679,-740.968 902.679,-740.968 902.679,-740.968 902.679,-699.485 902.679,-699.485"/>
<polygon fill="black" stroke="black" points="906.179,-699.485 902.679,-689.485 899.179,-699.485 906.179,-699.485"/>
</g>
<!-- u27 -->
<g id="node25" class="node"><title>u27</title>
<ellipse fill="none" stroke="black" cx="326.447" cy="-678.968" rx="55.7903" ry="18"/>
<text text-anchor="middle" x="326.447" y="-675.268" font-family="Times,serif" font-size="14.00">QueryDelete</text>
</g>
<!-- u20&#45;&gt;u27 -->
<g id="edge43" class="edge"><title>u20&#45;&gt;u27</title>
<path fill="none" stroke="black" d="M503.907,-804.968C449.658,-804.968 344.447,-804.968 344.447,-804.968 344.447,-804.968 344.447,-706.224 344.447,-706.224"/>
<polygon fill="black" stroke="black" points="347.947,-706.224 344.447,-696.224 340.947,-706.224 347.947,-706.224"/>
</g>
<!-- u26 -->
<g id="node26" class="node"><title>u26</title>
<ellipse fill="none" stroke="black" cx="754.447" cy="-678.968" rx="35.194" ry="18"/>
<text text-anchor="middle" x="754.447" y="-675.268" font-family="Times,serif" font-size="14.00">Import</text>
</g>
<!-- u20&#45;&gt;u26 -->
<g id="edge42" class="edge"><title>u20&#45;&gt;u26</title>
<path fill="none" stroke="black" d="M530.247,-795.987C530.247,-765.744 530.247,-707.968 530.247,-707.968 530.247,-707.968 734.497,-707.968 734.497,-707.968 734.497,-707.968 734.497,-703.808 734.497,-703.808"/>
<polygon fill="black" stroke="black" points="737.997,-703.808 734.497,-693.808 730.997,-703.808 737.997,-703.808"/>
</g>
<!-- u25 -->
<g id="node27" class="node"><title>u25</title>
<ellipse fill="none" stroke="black" cx="842.447" cy="-678.968" rx="34.394" ry="18"/>
<text text-anchor="middle" x="842.447" y="-675.268" font-family="Times,serif" font-size="14.00">Export</text>
</g>
<!-- u20&#45;&gt;u25 -->
<g id="edge41" class="edge"><title>u20&#45;&gt;u25</title>
<path fill="none" stroke="black" d="M540.646,-796.099C540.646,-768.58 540.646,-718.968 540.646,-718.968 540.646,-718.968 819.449,-718.968 819.449,-718.968 819.449,-718.968 819.449,-702.51 819.449,-702.51"/>
<polygon fill="black" stroke="black" points="822.949,-702.51 819.449,-692.51 815.949,-702.51 822.949,-702.51"/>
</g>
<!-- u23 -->
<g id="node29" class="node"><title>u23</title>
<ellipse fill="none" stroke="black" cx="440.447" cy="-678.968" rx="40.0939" ry="18"/>
<text text-anchor="middle" x="440.447" y="-675.268" font-family="Times,serif" font-size="14.00">Deduple</text>
</g>
<!-- u20&#45;&gt;u23 -->
<g id="edge40" class="edge"><title>u20&#45;&gt;u23</title>
<path fill="none" stroke="black" d="M512.347,-799.968C486.813,-799.968 449.246,-799.968 449.246,-799.968 449.246,-799.968 449.246,-706.562 449.246,-706.562"/>
<polygon fill="black" stroke="black" points="452.746,-706.562 449.246,-696.562 445.746,-706.562 452.746,-706.562"/>
</g>
<!-- u21 -->
<g id="node44" class="node"><title>u21</title>
<ellipse fill="none" stroke="black" cx="1372.45" cy="-557.968" rx="48.1917" ry="18"/>
<text text-anchor="middle" x="1372.45" y="-554.268" font-family="Times,serif" font-size="14.00">Pagination</text>
</g>
<!-- u20&#45;&gt;u21 -->
<g id="edge38" class="edge"><title>u20&#45;&gt;u21</title>
<path fill="none" stroke="black" d="M561.445,-801.361C561.445,-786.259 561.445,-762.968 561.445,-762.968 561.445,-762.968 1372.45,-762.968 1372.45,-762.968 1372.45,-762.968 1372.45,-586.16 1372.45,-586.16"/>
<polygon fill="black" stroke="black" points="1375.95,-586.16 1372.45,-576.16 1368.95,-586.16 1375.95,-586.16"/>
</g>
<!-- u9&#45;&gt;u20 -->
<g id="edge19" class="edge"><title>u9&#45;&gt;u20</title>
<path fill="none" stroke="black" d="M113.447,-929.896C113.447,-893.32 113.447,-813.968 113.447,-813.968 113.447,-813.968 488.735,-813.968 488.735,-813.968"/>
<polygon fill="black" stroke="black" points="488.735,-817.468 498.735,-813.968 488.735,-810.468 488.735,-817.468"/>
</g>
<!-- u40 -->
<g id="node17" class="node"><title>u40</title>
<ellipse fill="none" stroke="black" cx="1032.45" cy="-813.968" rx="42.7926" ry="18"/>
<text text-anchor="middle" x="1032.45" y="-810.268" font-family="Times,serif" font-size="14.00">JqueryUi</text>
</g>
<!-- u40&#45;&gt;u1 -->
<g id="edge80" class="edge"><title>u40&#45;&gt;u1</title>
<path fill="none" stroke="black" d="M1057.35,-798.884C1057.35,-798.884 1057.35,-469.239 1057.35,-469.239"/>
<polygon fill="black" stroke="black" points="1060.85,-469.239 1057.35,-459.239 1053.85,-469.239 1060.85,-469.239"/>
</g>
<!-- u37&#45;&gt;u31 -->
<g id="edge72" class="edge"><title>u37&#45;&gt;u31</title>
<path fill="none" stroke="black" d="M685.559,-933.373C685.559,-933.373 685.559,-840.209 685.559,-840.209"/>
<polygon fill="black" stroke="black" points="689.059,-840.209 685.559,-830.209 682.059,-840.209 689.059,-840.209"/>
</g>
<!-- u37&#45;&gt;u20 -->
<g id="edge71" class="edge"><title>u37&#45;&gt;u20</title>
<path fill="none" stroke="black" d="M674.13,-941.968C665.13,-941.968 657.697,-941.968 657.697,-941.968 657.697,-941.968 657.697,-819.968 657.697,-819.968 657.697,-819.968 579.826,-819.968 579.826,-819.968"/>
<polygon fill="black" stroke="black" points="579.826,-816.468 569.826,-819.968 579.826,-823.468 579.826,-816.468"/>
</g>
<!-- u37&#45;&gt;u40 -->
<g id="edge75" class="edge"><title>u37&#45;&gt;u40</title>
<path fill="none" stroke="black" d="M698.818,-930.177C698.818,-902.174 698.818,-850.968 698.818,-850.968 698.818,-850.968 998.326,-850.968 998.326,-850.968 998.326,-850.968 998.326,-835.27 998.326,-835.27"/>
<polygon fill="black" stroke="black" points="1001.83,-835.27 998.326,-825.27 994.826,-835.27 1001.83,-835.27"/>
</g>
<!-- u37&#45;&gt;u39 -->
<g id="edge74" class="edge"><title>u37&#45;&gt;u39</title>
<path fill="none" stroke="black" d="M725.335,-933.385C725.335,-922.669 725.335,-909.968 725.335,-909.968 725.335,-909.968 1570.71,-909.968 1570.71,-909.968 1570.71,-909.968 1570.71,-584.946 1570.71,-584.946"/>
<polygon fill="black" stroke="black" points="1574.21,-584.946 1570.71,-574.946 1567.21,-584.946 1574.21,-584.946"/>
</g>
<!-- u37&#45;&gt;u38 -->
<g id="edge73" class="edge"><title>u37&#45;&gt;u38</title>
<path fill="none" stroke="black" d="M712.076,-930.251C712.076,-913.194 712.076,-889.968 712.076,-889.968 712.076,-889.968 1473.45,-889.968 1473.45,-889.968 1473.45,-889.968 1473.45,-586.291 1473.45,-586.291"/>
<polygon fill="black" stroke="black" points="1476.95,-586.291 1473.45,-576.291 1469.95,-586.291 1476.95,-586.291"/>
</g>
<!-- u36&#45;&gt;u20 -->
<g id="edge70" class="edge"><title>u36&#45;&gt;u20</title>
<path fill="none" stroke="black" d="M580.773,-941.968C574.209,-941.968 569.38,-941.968 569.38,-941.968 569.38,-941.968 569.38,-830.492 569.38,-830.492"/>
<polygon fill="black" stroke="black" points="572.88,-830.491 569.38,-820.492 565.88,-830.492 572.88,-830.491"/>
</g>
<!-- u35 -->
<g id="node40" class="node"><title>u35</title>
<ellipse fill="none" stroke="black" cx="1736.45" cy="-557.968" rx="38.9931" ry="18"/>
<text text-anchor="middle" x="1736.45" y="-554.268" font-family="Times,serif" font-size="14.00">Archive</text>
</g>
<!-- u34&#45;&gt;u35 -->
<g id="edge68" class="edge"><title>u34&#45;&gt;u35</title>
<path fill="none" stroke="black" d="M898.915,-937.223C898.915,-929.326 898.915,-919.968 898.915,-919.968 898.915,-919.968 1749.45,-919.968 1749.45,-919.968 1749.45,-919.968 1749.45,-584.942 1749.45,-584.942"/>
<polygon fill="black" stroke="black" points="1752.95,-584.942 1749.45,-574.942 1745.95,-584.942 1752.95,-584.942"/>
</g>
<!-- u17 -->
<g id="node21" class="node"><title>u17</title>
<ellipse fill="none" stroke="black" cx="783.447" cy="-947.968" rx="27" ry="18"/>
<text text-anchor="middle" x="783.447" y="-944.268" font-family="Times,serif" font-size="14.00">Xml</text>
</g>
<!-- u19 -->
<g id="node30" class="node"><title>u19</title>
<ellipse fill="none" stroke="black" cx="1231.45" cy="-813.968" rx="34.394" ry="18"/>
<text text-anchor="middle" x="1231.45" y="-810.268" font-family="Times,serif" font-size="14.00">Export</text>
</g>
<!-- u17&#45;&gt;u19 -->
<g id="edge33" class="edge"><title>u17&#45;&gt;u19</title>
<path fill="none" stroke="black" d="M803.386,-935.597C803.386,-913.83 803.386,-870.968 803.386,-870.968 803.386,-870.968 1231.45,-870.968 1231.45,-870.968 1231.45,-870.968 1231.45,-842.003 1231.45,-842.003"/>
<polygon fill="black" stroke="black" points="1234.95,-842.003 1231.45,-832.003 1227.95,-842.003 1234.95,-842.003"/>
</g>
<!-- u18 -->
<g id="node41" class="node"><title>u18</title>
<ellipse fill="none" stroke="black" cx="1648.45" cy="-557.968" rx="30.5947" ry="18"/>
<text text-anchor="middle" x="1648.45" y="-554.268" font-family="Times,serif" font-size="14.00">XML</text>
</g>
<!-- u17&#45;&gt;u18 -->
<g id="edge32" class="edge"><title>u17&#45;&gt;u18</title>
<path fill="none" stroke="black" d="M798.772,-933.133C798.772,-891.055 798.772,-773.968 798.772,-773.968 798.772,-773.968 1648.45,-773.968 1648.45,-773.968 1648.45,-773.968 1648.45,-586.013 1648.45,-586.013"/>
<polygon fill="black" stroke="black" points="1651.95,-586.012 1648.45,-576.013 1644.95,-586.013 1651.95,-586.012"/>
</g>
<!-- u24 -->
<g id="node28" class="node"><title>u24</title>
<ellipse fill="none" stroke="black" cx="699.447" cy="-557.968" rx="27" ry="18"/>
<text text-anchor="middle" x="699.447" y="-554.268" font-family="Times,serif" font-size="14.00">API</text>
</g>
<!-- u30&#45;&gt;u24 -->
<g id="edge64" class="edge"><title>u30&#45;&gt;u24</title>
<path fill="none" stroke="black" d="M682.079,-665.088C682.079,-665.088 682.079,-582.059 682.079,-582.059"/>
<polygon fill="black" stroke="black" points="685.579,-582.059 682.079,-572.059 678.579,-582.059 685.579,-582.059"/>
</g>
<!-- u30&#45;&gt;u10 -->
<g id="edge63" class="edge"><title>u30&#45;&gt;u10</title>
<path fill="none" stroke="black" d="M691.71,-668.853C691.71,-648.381 691.71,-603.968 691.71,-603.968 691.71,-603.968 1215.36,-603.968 1215.36,-603.968 1215.36,-603.968 1215.36,-583.799 1215.36,-583.799"/>
<polygon fill="black" stroke="black" points="1218.86,-583.799 1215.36,-573.799 1211.86,-583.799 1218.86,-583.799"/>
</g>
<!-- u29&#45;&gt;u24 -->
<g id="edge62" class="edge"><title>u29&#45;&gt;u24</title>
<path fill="none" stroke="black" d="M547.579,-661.958C547.579,-630.626 547.579,-566.968 547.579,-566.968 547.579,-566.968 666.05,-566.968 666.05,-566.968"/>
<polygon fill="black" stroke="black" points="666.05,-570.468 676.05,-566.968 666.05,-563.468 666.05,-570.468"/>
</g>
<!-- u29&#45;&gt;u10 -->
<g id="edge61" class="edge"><title>u29&#45;&gt;u10</title>
<path fill="none" stroke="black" d="M523.315,-661.808C523.315,-635.946 523.315,-589.968 523.315,-589.968 523.315,-589.968 1202.86,-589.968 1202.86,-589.968 1202.86,-589.968 1202.86,-580.249 1202.86,-580.249"/>
<polygon fill="black" stroke="black" points="1206.36,-580.248 1202.86,-570.249 1199.36,-580.249 1206.36,-580.248"/>
</g>
<!-- u28&#45;&gt;u24 -->
<g id="edge60" class="edge"><title>u28&#45;&gt;u24</title>
<path fill="none" stroke="black" d="M913.351,-663.542C913.351,-631.556 913.351,-560.968 913.351,-560.968 913.351,-560.968 736.105,-560.968 736.105,-560.968"/>
<polygon fill="black" stroke="black" points="736.106,-557.468 726.105,-560.968 736.105,-564.468 736.106,-557.468"/>
</g>
<!-- u28&#45;&gt;u10 -->
<g id="edge59" class="edge"><title>u28&#45;&gt;u10</title>
<path fill="none" stroke="black" d="M955.597,-663.259C955.597,-645.185 955.597,-617.968 955.597,-617.968 955.597,-617.968 1227.87,-617.968 1227.87,-617.968 1227.87,-617.968 1227.87,-585.645 1227.87,-585.645"/>
<polygon fill="black" stroke="black" points="1231.37,-585.645 1227.87,-575.645 1224.37,-585.645 1231.37,-585.645"/>
</g>
<!-- u27&#45;&gt;u24 -->
<g id="edge58" class="edge"><title>u27&#45;&gt;u24</title>
<path fill="none" stroke="black" d="M326.447,-660.892C326.447,-625.172 326.447,-548.968 326.447,-548.968 326.447,-548.968 665.831,-548.968 665.831,-548.968"/>
<polygon fill="black" stroke="black" points="665.831,-552.468 675.831,-548.968 665.831,-545.468 665.831,-552.468"/>
</g>
<!-- u15 -->
<g id="node32" class="node"><title>u15</title>
<ellipse fill="none" stroke="black" cx="1211.45" cy="-678.968" rx="53.8905" ry="18"/>
<text text-anchor="middle" x="1211.45" y="-675.268" font-family="Times,serif" font-size="14.00">SavedQuery</text>
</g>
<!-- u27&#45;&gt;u15 -->
<g id="edge57" class="edge"><title>u27&#45;&gt;u15</title>
<path fill="none" stroke="black" d="M327.223,-697.013C327.223,-718.63 327.223,-751.968 327.223,-751.968 327.223,-751.968 1168.35,-751.968 1168.35,-751.968 1168.35,-751.968 1168.35,-700.055 1168.35,-700.055"/>
<polygon fill="black" stroke="black" points="1171.85,-700.055 1168.35,-690.055 1164.85,-700.055 1171.85,-700.055"/>
</g>
<!-- u26&#45;&gt;u17 -->
<g id="edge55" class="edge"><title>u26&#45;&gt;u17</title>
<path fill="none" stroke="black" d="M772.995,-694.593C772.995,-694.593 772.995,-921.275 772.995,-921.275"/>
<polygon fill="black" stroke="black" points="769.495,-921.275 772.995,-931.275 776.495,-921.275 769.495,-921.275"/>
</g>
<!-- u26&#45;&gt;u24 -->
<g id="edge56" class="edge"><title>u26&#45;&gt;u24</title>
<path fill="none" stroke="black" d="M722.899,-671.029C722.899,-671.029 722.899,-577.075 722.899,-577.075"/>
<polygon fill="black" stroke="black" points="726.399,-577.075 722.899,-567.075 719.399,-577.075 726.399,-577.075"/>
</g>
<!-- u25&#45;&gt;u24 -->
<g id="edge54" class="edge"><title>u25&#45;&gt;u24</title>
<path fill="none" stroke="black" d="M842.447,-660.639C842.447,-629.111 842.447,-567.968 842.447,-567.968 842.447,-567.968 732.106,-567.968 732.106,-567.968"/>
<polygon fill="black" stroke="black" points="732.106,-564.468 722.106,-567.968 732.106,-571.468 732.106,-564.468"/>
</g>
<!-- u25&#45;&gt;u19 -->
<g id="edge53" class="edge"><title>u25&#45;&gt;u19</title>
<path fill="none" stroke="black" d="M852.672,-696.234C852.672,-711.03 852.672,-729.968 852.672,-729.968 852.672,-729.968 1219.8,-729.968 1219.8,-729.968 1219.8,-729.968 1219.8,-786.969 1219.8,-786.969"/>
<polygon fill="black" stroke="black" points="1216.3,-786.969 1219.8,-796.969 1223.3,-786.969 1216.3,-786.969"/>
</g>
<!-- u24&#45;&gt;u1 -->
<g id="edge52" class="edge"><title>u24&#45;&gt;u1</title>
<path fill="none" stroke="black" d="M725.836,-553.968C805.697,-553.968 1039.35,-553.968 1039.35,-553.968 1039.35,-553.968 1039.35,-467.158 1039.35,-467.158"/>
<polygon fill="black" stroke="black" points="1042.85,-467.158 1039.35,-457.158 1035.85,-467.158 1042.85,-467.158"/>
</g>
<!-- u23&#45;&gt;u24 -->
<g id="edge51" class="edge"><title>u23&#45;&gt;u24</title>
<path fill="none" stroke="black" d="M453.879,-661.888C453.879,-628.535 453.879,-557.968 453.879,-557.968 453.879,-557.968 662.229,-557.968 662.229,-557.968"/>
<polygon fill="black" stroke="black" points="662.229,-561.468 672.229,-557.968 662.229,-554.468 662.229,-561.468"/>
</g>
<!-- u11 -->
<g id="node36" class="node"><title>u11</title>
<ellipse fill="none" stroke="black" cx="1238.45" cy="-440.968" rx="34.394" ry="18"/>
<text text-anchor="middle" x="1238.45" y="-437.268" font-family="Times,serif" font-size="14.00">Rubric</text>
</g>
<!-- u23&#45;&gt;u11 -->
<g id="edge50" class="edge"><title>u23&#45;&gt;u11</title>
<path fill="none" stroke="black" d="M427.015,-661.991C427.015,-623.116 427.015,-530.968 427.015,-530.968 427.015,-530.968 1217.78,-530.968 1217.78,-530.968 1217.78,-530.968 1217.78,-465.428 1217.78,-465.428"/>
<polygon fill="black" stroke="black" points="1221.28,-465.428 1217.78,-455.428 1214.28,-465.428 1221.28,-465.428"/>
</g>
<!-- u19&#45;&gt;u15 -->
<g id="edge37" class="edge"><title>u19&#45;&gt;u15</title>
<path fill="none" stroke="black" d="M1242.59,-796.87C1242.59,-796.87 1242.59,-703.858 1242.59,-703.858"/>
<polygon fill="black" stroke="black" points="1246.09,-703.858 1242.59,-693.858 1239.09,-703.858 1246.09,-703.858"/>
</g>
<!-- u16 -->
<g id="node31" class="node"><title>u16</title>
<ellipse fill="none" stroke="black" cx="1324.45" cy="-440.968" rx="33.5952" ry="18"/>
<text text-anchor="middle" x="1324.45" y="-437.268" font-family="Times,serif" font-size="14.00">Origin</text>
</g>
<!-- u16&#45;&gt;u3 -->
<g id="edge31" class="edge"><title>u16&#45;&gt;u3</title>
<path fill="none" stroke="black" d="M1324.45,-422.917C1324.45,-365.365 1324.45,-189.968 1324.45,-189.968 1324.45,-189.968 1165.35,-189.968 1165.35,-189.968"/>
<polygon fill="black" stroke="black" points="1165.35,-186.468 1155.35,-189.968 1165.35,-193.468 1165.35,-186.468"/>
</g>
<!-- u15&#45;&gt;u16 -->
<g id="edge30" class="edge"><title>u15&#45;&gt;u16</title>
<path fill="none" stroke="black" d="M1265.65,-678.968C1287.44,-678.968 1307.5,-678.968 1307.5,-678.968 1307.5,-678.968 1307.5,-466.584 1307.5,-466.584"/>
<polygon fill="black" stroke="black" points="1311,-466.584 1307.5,-456.584 1304,-466.584 1311,-466.584"/>
</g>
<!-- u14 -->
<g id="node33" class="node"><title>u14</title>
<ellipse fill="none" stroke="black" cx="1139.45" cy="-557.968" rx="32.4942" ry="18"/>
<text text-anchor="middle" x="1139.45" y="-554.268" font-family="Times,serif" font-size="14.00">Query</text>
</g>
<!-- u15&#45;&gt;u14 -->
<g id="edge29" class="edge"><title>u15&#45;&gt;u14</title>
<path fill="none" stroke="black" d="M1164.72,-669.873C1164.72,-669.873 1164.72,-579.609 1164.72,-579.609"/>
<polygon fill="black" stroke="black" points="1168.22,-579.609 1164.72,-569.609 1161.22,-579.609 1168.22,-579.609"/>
</g>
<!-- u15&#45;&gt;u10 -->
<g id="edge28" class="edge"><title>u15&#45;&gt;u10</title>
<path fill="none" stroke="black" d="M1252.89,-667.366C1252.89,-667.366 1252.89,-585.538 1252.89,-585.538"/>
<polygon fill="black" stroke="black" points="1256.39,-585.538 1252.89,-575.538 1249.39,-585.538 1256.39,-585.538"/>
</g>
<!-- u14&#45;&gt;u1 -->
<g id="edge26" class="edge"><title>u14&#45;&gt;u1</title>
<path fill="none" stroke="black" d="M1113.53,-546.968C1099.8,-546.968 1085.73,-546.968 1085.73,-546.968 1085.73,-546.968 1085.73,-461.132 1085.73,-461.132"/>
<polygon fill="black" stroke="black" points="1089.23,-461.132 1085.73,-451.132 1082.23,-461.132 1089.23,-461.132"/>
</g>
<!-- u13 -->
<g id="node34" class="node"><title>u13</title>
<ellipse fill="none" stroke="black" cx="1159.45" cy="-440.968" rx="27" ry="18"/>
<text text-anchor="middle" x="1159.45" y="-437.268" font-family="Times,serif" font-size="14.00">Tag</text>
</g>
<!-- u14&#45;&gt;u13 -->
<g id="edge27" class="edge"><title>u14&#45;&gt;u13</title>
<path fill="none" stroke="black" d="M1152.2,-541.205C1152.2,-541.205 1152.2,-468.464 1152.2,-468.464"/>
<polygon fill="black" stroke="black" points="1155.7,-468.464 1152.2,-458.464 1148.7,-468.464 1155.7,-468.464"/>
</g>
<!-- u13&#45;&gt;u3 -->
<g id="edge25" class="edge"><title>u13&#45;&gt;u3</title>
<path fill="none" stroke="black" d="M1132.17,-440.968C1116.24,-440.968 1099.25,-440.968 1099.25,-440.968 1099.25,-440.968 1099.25,-218.019 1099.25,-218.019"/>
<polygon fill="black" stroke="black" points="1102.75,-218.019 1099.25,-208.019 1095.75,-218.019 1102.75,-218.019"/>
</g>
<!-- u12&#45;&gt;u3 -->
<g id="edge24" class="edge"><title>u12&#45;&gt;u3</title>
<path fill="none" stroke="black" d="M1132.15,-307.268C1132.15,-307.268 1132.15,-214.022 1132.15,-214.022"/>
<polygon fill="black" stroke="black" points="1135.65,-214.022 1132.15,-204.022 1128.65,-214.022 1135.65,-214.022"/>
</g>
<!-- u11&#45;&gt;u12 -->
<g id="edge23" class="edge"><title>u11&#45;&gt;u12</title>
<path fill="none" stroke="black" d="M1238.45,-422.943C1238.45,-390.124 1238.45,-323.968 1238.45,-323.968 1238.45,-323.968 1196.04,-323.968 1196.04,-323.968"/>
<polygon fill="black" stroke="black" points="1196.04,-320.468 1186.04,-323.968 1196.04,-327.468 1196.04,-320.468"/>
</g>
<!-- u10&#45;&gt;u1 -->
<g id="edge20" class="edge"><title>u10&#45;&gt;u1</title>
<path fill="none" stroke="black" d="M1194.9,-550.282C1194.9,-532.684 1194.9,-490.968 1194.9,-490.968 1194.9,-490.968 1087.67,-490.968 1087.67,-490.968 1087.67,-490.968 1087.67,-459.224 1087.67,-459.224"/>
<polygon fill="black" stroke="black" points="1091.17,-459.224 1087.67,-449.224 1084.17,-459.225 1091.17,-459.224"/>
</g>
<!-- u10&#45;&gt;u13 -->
<g id="edge22" class="edge"><title>u10&#45;&gt;u13</title>
<path fill="none" stroke="black" d="M1199.45,-547.171C1199.45,-518.206 1199.45,-440.968 1199.45,-440.968 1199.45,-440.968 1196.79,-440.968 1196.79,-440.968"/>
<polygon fill="black" stroke="black" points="1196.79,-437.468 1186.79,-440.968 1196.79,-444.468 1196.79,-437.468"/>
</g>
<!-- u10&#45;&gt;u11 -->
<g id="edge21" class="edge"><title>u10&#45;&gt;u11</title>
<path fill="none" stroke="black" d="M1231.56,-539.943C1231.56,-539.943 1231.56,-468.821 1231.56,-468.821"/>
<polygon fill="black" stroke="black" points="1235.06,-468.821 1231.56,-458.821 1228.06,-468.821 1235.06,-468.821"/>
</g>
<!-- u45&#45;&gt;u17 -->
<g id="edge88" class="edge"><title>u45&#45;&gt;u17</title>
<path fill="none" stroke="black" d="M1820.8,-575.354C1820.8,-601 1820.8,-645.968 1820.8,-645.968 1820.8,-645.968 794.158,-645.968 794.158,-645.968 794.158,-645.968 794.158,-921.301 794.158,-921.301"/>
<polygon fill="black" stroke="black" points="790.658,-921.301 794.158,-931.301 797.658,-921.301 790.658,-921.301"/>
</g>
<!-- u35&#45;&gt;u20 -->
<g id="edge69" class="edge"><title>u35&#45;&gt;u20</title>
<path fill="none" stroke="black" d="M1723.45,-575.03C1723.45,-627.821 1723.45,-784.968 1723.45,-784.968 1723.45,-784.968 519.848,-784.968 519.848,-784.968 519.848,-784.968 519.848,-787.435 519.848,-787.435"/>
<polygon fill="black" stroke="black" points="516.348,-787.435 519.848,-797.435 523.348,-787.435 516.348,-787.435"/>
</g>
<!-- u18&#45;&gt;u1 -->
<g id="edge34" class="edge"><title>u18&#45;&gt;u1</title>
<path fill="none" stroke="black" d="M1633.17,-542.157C1633.17,-524.681 1633.17,-498.968 1633.17,-498.968 1633.17,-498.968 1081.68,-498.968 1081.68,-498.968 1081.68,-498.968 1081.68,-463.553 1081.68,-463.553"/>
<polygon fill="black" stroke="black" points="1085.18,-463.553 1081.68,-453.553 1078.18,-463.553 1085.18,-463.553"/>
</g>
<!-- u18&#45;&gt;u16 -->
<g id="edge36" class="edge"><title>u18&#45;&gt;u16</title>
<path fill="none" stroke="black" d="M1663.72,-542.14C1663.72,-508.919 1663.72,-434.968 1663.72,-434.968 1663.72,-434.968 1366.36,-434.968 1366.36,-434.968"/>
<polygon fill="black" stroke="black" points="1366.37,-431.468 1356.36,-434.968 1366.36,-438.468 1366.37,-431.468"/>
</g>
<!-- u18&#45;&gt;u11 -->
<g id="edge35" class="edge"><title>u18&#45;&gt;u11</title>
<path fill="none" stroke="black" d="M1648.45,-539.553C1648.45,-512.962 1648.45,-466.968 1648.45,-466.968 1648.45,-466.968 1259.12,-466.968 1259.12,-466.968 1259.12,-466.968 1259.12,-465.488 1259.12,-465.488"/>
<polygon fill="black" stroke="black" points="1262.62,-465.488 1259.12,-455.488 1255.62,-465.488 1262.62,-465.488"/>
</g>
<!-- u39&#45;&gt;u1 -->
<g id="edge78" class="edge"><title>u39&#45;&gt;u1</title>
<path fill="none" stroke="black" d="M1548.18,-540.986C1548.18,-526.15 1548.18,-506.968 1548.18,-506.968 1548.18,-506.968 1079.57,-506.968 1079.57,-506.968 1079.57,-506.968 1079.57,-464.643 1079.57,-464.643"/>
<polygon fill="black" stroke="black" points="1083.07,-464.643 1079.57,-454.643 1076.07,-464.643 1083.07,-464.643"/>
</g>
<!-- u39&#45;&gt;u16 -->
<g id="edge79" class="edge"><title>u39&#45;&gt;u16</title>
<path fill="none" stroke="black" d="M1570.71,-540.624C1570.71,-509.405 1570.71,-446.968 1570.71,-446.968 1570.71,-446.968 1366.39,-446.968 1366.39,-446.968"/>
<polygon fill="black" stroke="black" points="1366.39,-443.468 1356.39,-446.968 1366.39,-450.468 1366.39,-443.468"/>
</g>
<!-- u38&#45;&gt;u1 -->
<g id="edge76" class="edge"><title>u38&#45;&gt;u1</title>
<path fill="none" stroke="black" d="M1461.96,-540.973C1461.96,-528.954 1461.96,-514.968 1461.96,-514.968 1461.96,-514.968 1077.46,-514.968 1077.46,-514.968 1077.46,-514.968 1077.46,-465.588 1077.46,-465.588"/>
<polygon fill="black" stroke="black" points="1080.96,-465.588 1077.46,-455.588 1073.96,-465.588 1080.96,-465.588"/>
</g>
<!-- u38&#45;&gt;u11 -->
<g id="edge77" class="edge"><title>u38&#45;&gt;u11</title>
<path fill="none" stroke="black" d="M1484.93,-540.77C1484.93,-516.459 1484.93,-474.968 1484.93,-474.968 1484.93,-474.968 1245.34,-474.968 1245.34,-474.968 1245.34,-474.968 1245.34,-468.765 1245.34,-468.765"/>
<polygon fill="black" stroke="black" points="1248.84,-468.765 1245.34,-458.765 1241.84,-468.765 1248.84,-468.765"/>
</g>
<!-- u21&#45;&gt;u1 -->
<g id="edge47" class="edge"><title>u21&#45;&gt;u1</title>
<path fill="none" stroke="black" d="M1341.3,-544.212C1341.3,-522.56 1341.3,-482.968 1341.3,-482.968 1341.3,-482.968 1089.61,-482.968 1089.61,-482.968 1089.61,-482.968 1089.61,-457.165 1089.61,-457.165"/>
<polygon fill="black" stroke="black" points="1093.11,-457.165 1089.61,-447.165 1086.11,-457.165 1093.11,-457.165"/>
</g>
<!-- u3&#45;&gt;u4 -->
<g id="edge14" class="edge"><title>u3&#45;&gt;u4</title>
<path fill="none" stroke="black" d="M1051.52,-203.205C1051.52,-222.731 1051.52,-256.968 1051.52,-256.968 1051.52,-256.968 22.9646,-256.968 22.9646,-256.968 22.9646,-256.968 22.9646,-920.887 22.9646,-920.887"/>
<polygon fill="black" stroke="black" points="19.4647,-920.887 22.9646,-930.887 26.4647,-920.887 19.4647,-920.887"/>
</g>
<!-- u8 -->
<g id="node46" class="node"><title>u8</title>
<ellipse fill="none" stroke="black" cx="1083.45" cy="-54.968" rx="48.1917" ry="18"/>
<text text-anchor="middle" x="1083.45" y="-51.268" font-family="Times,serif" font-size="14.00">StaticFiles</text>
</g>
<!-- u3&#45;&gt;u8 -->
<g id="edge15" class="edge"><title>u3&#45;&gt;u8</title>
<path fill="none" stroke="black" d="M1083.45,-172.041C1083.45,-172.041 1083.45,-82.9691 1083.45,-82.9691"/>
<polygon fill="black" stroke="black" points="1086.95,-82.9691 1083.45,-72.9691 1079.95,-82.9691 1086.95,-82.9691"/>
</g>
<!-- u8&#45;&gt;u6 -->
<g id="edge18" class="edge"><title>u8&#45;&gt;u6</title>
<path fill="none" stroke="black" d="M1035.33,-54.968C1028.93,-54.968 1024.52,-54.968 1024.52,-54.968 1024.52,-54.968 1024.52,-189.968 1024.52,-189.968 1024.52,-189.968 1023.46,-189.968 1023.46,-189.968"/>
<polygon fill="black" stroke="black" points="1023.9,-186.468 1013.9,-189.968 1023.9,-193.468 1023.9,-186.468"/>
</g>
</g>
</svg>
